<svg height="358" viewBox="0 0 501 358" width="501" xmlns="http://www.w3.org/2000/svg"><g fill="none" fill-rule="evenodd"><path d="m124.3 71.242-26.02 65.968h-92.86l26.02-65.968-26.04-66.032h92.86z" fill="#afafaf"/><path d="m105.34 124.34h-48c-2.762 0-5-2.238-5-5s2.238-5 5-5h48c2.762 0 5 2.238 5 5s-2.238 5-5 5zm-68 0h-8.54c-2.762 0-5-2.238-5-5s2.238-5 5-5h8.54c2.762 0 5 2.238 5 5s-2.238 5-5 5z" fill="#fff" fill-rule="nonzero"/><path d="m217.16 71.242-26.02 65.968h-92.86l26.02-65.968-26.04-66.032h92.86z" fill="#72c1e8"/><path d="m198.2 124.34h-92.86c-2.762 0-5-2.238-5-5s2.238-5 5-5h92.86c2.762 0 5 2.238 5 5s-2.24 5-5 5z" fill="#c5e5ff"/><path d="m310.02 71.242-26.02 65.968h-92.86l26.02-65.968-26.04-66.032h92.86z" fill="#13bf6d"/><path d="m291.06 124.34h-48c-2.762 0-5-2.238-5-5s2.238-5 5-5h48c2.762 0 5 2.238 5 5s-2.238 5-5 5zm-68 0h-24.86c-2.762 0-5-2.238-5-5s2.238-5 5-5h24.862c2.762 0 5 2.238 5 5s-2.24 5-5.002 5z" fill="#76ffba" fill-rule="nonzero"/><path d="m402.88 71.242-26.02 65.968h-92.86l26.02-65.968-26.04-66.032h92.88z" fill="#f0c020"/><path d="m383.92 124.34h-92.86c-2.762 0-5-2.238-5-5s2.238-5 5-5h92.86c2.762 0 5 2.238 5 5s-2.238 5-5 5z" fill="#f9e5af"/><path d="m495.76 71.242-26.02 65.968h-92.88l26.02-65.968-26.02-66.032h92.86z" fill="#fc5d3d"/><path d="m476.8 124.34h-92.88c-2.762 0-5-2.238-5-5s2.238-5 5-5h92.88c2.762 0 5 2.238 5 5s-2.238 5-5 5z" fill="#ffcbc2"/><circle cx="55.52" cy="309.402" fill="#72c1e8" r="23.084"/><path d="m367.466 245.606h-45.104c-6.036 0-10.93 4.894-10.93 10.93v79.07c0 6.036 4.894 10.93 10.93 10.93h45.104c6.038 0 10.93-4.894 10.93-10.93v-79.07c0-6.034-4.894-10.93-10.93-10.93z" fill="#72c1e8"/><path d="m348.162 270.342 4.684 6.57 7.844 2.524c2.63.846 3.624 4.044 1.938 6.232l-4.88 6.332.148 8.272c.05 2.796-2.718 4.776-5.348 3.822l-7.636-2.768-7.636 2.768c-2.63.954-5.398-1.026-5.348-3.822l.148-8.272-4.88-6.332c-1.686-2.188-.692-5.386 1.938-6.232l7.844-2.524 4.684-6.57c1.594-2.23 4.908-2.23 6.5 0z" fill="#f0c020"/><path d="m152.356 250.558 7.364 10.328 12.332 3.968c4.134 1.33 5.696 6.358 3.046 9.798l-7.67 9.954.234 13.004c.08 4.396-4.274 7.508-8.408 6.008l-12.004-4.352-12.004 4.352c-4.134 1.498-8.486-1.612-8.408-6.008l.234-13.004-7.67-9.954c-2.65-3.44-1.088-8.468 3.046-9.798l12.332-3.968 7.364-10.328c2.502-3.506 7.712-3.506 10.212 0z" fill="#f0c020"/><path d="m471.586 330.322v14.012h-53.502v-14.012c0-8.592 5.888-15.796 13.846-17.842 1.446-.388 1.952-2.256.906-3.302-3.374-3.432-5.3-8.25-4.76-13.54.822-8.216 7.84-15.114 16.726-15.138h.058c.082 0 .142.024.224.024 9.202.106 16.608 7.592 16.608 16.83 0 4.584-1.834 8.72-4.796 11.754-1.082 1.094-.646 2.974.846 3.374 7.944 2.044 13.844 9.248 13.844 17.84z" fill="#fc5d3d"/><path d="m272 292.346h-43v27.32h43l-11.332-13.66z" fill="#fc5d3d"/><g fill="#000"><path d="m77.042 86.544v-30.668c0-2.762-2.238-5-5-5s-5 2.238-5 5v30.668c0 2.762 2.238 5 5 5s5-2.238 5-5z"/><path d="m447.214 82.134h-15.388c-2.762 0-5 2.238-5 5s2.238 5 5 5h15.388c6.362 0 11.738-4.554 12.786-10.832 1.316-7.904-4.782-15.092-12.786-15.092h-9.486l.986-5.924h15.244c2.762 0 5-2.238 5-5s-2.238-5-5-5h-19.48c-2.446 0-4.532 1.768-4.932 4.178l-2.652 15.924c-.508 3.046 1.844 5.822 4.932 5.822h15.388c1.832 0 3.222 1.64 2.922 3.448-.24 1.436-1.468 2.476-2.922 2.476z"/><path d="m168.81 66.474h-5.874c-7.922 0-14.332 6.412-14.328 14.338l.004 5.874c.002 2.76 2.24 4.996 5 4.996h21.872c2.762 0 5-2.238 5-5s-2.238-5-5-5h-16.876v-.876c0-2.404 1.942-4.332 4.328-4.332h5.874c6.77 0 12.588-5.532 12.378-12.568-.228-7.506-5.886-13.166-13.164-13.166h-14.412c-2.762 0-5 2.238-5 5s2.238 5 5 5h14.412c1.138 0 3.086.73 3.168 3.468.04 1.254-1.106 2.266-2.382 2.266z"/><path d="m258.748 50.288h-9.934c-2.762 0-5 2.238-5 5s2.238 5 5 5h9.934c1.632 0 2.96 1.328 2.96 2.96s-1.328 2.962-2.96 2.962h-9.934c-2.762 0-5 2.238-5 5s2.238 5 5 5h9.934c1.632 0 2.96 1.328 2.96 2.96s-1.328 2.962-2.96 2.962h-9.934c-2.762 0-5 2.238-5 5s2.238 5 5 5h9.934c10.756 0 16.846-12.432 10.206-20.924 6.626-8.476.566-20.92-10.206-20.92z"/><path d="m336.628 80.03h15.646v7.106c0 2.762 2.238 5 5 5s5-2.238 5-5v-7.106h2.34c2.762 0 5-2.238 5-5s-2.238-5-5-5h-2.34v-14.742c0-2.762-2.238-5-5-5s-5 2.238-5 5v14.742h-9.248l3.32-13.334c.668-2.68-.962-5.392-3.642-6.06-2.682-.676-5.394.962-6.06 3.642l-4.868 19.542c-.786 3.152 1.606 6.21 4.852 6.21z"/><path d="m55.52 281.318c-15.486 0-28.084 12.598-28.084 28.084 0 5.944 1.868 11.452 5.03 15.996l-17.604 17.604c-1.954 1.952-1.954 5.118 0 7.07 1.954 1.954 5.118 1.954 7.07 0l17.606-17.606c4.54 3.156 10.044 5.02 15.98 5.02 15.486 0 28.084-12.598 28.084-28.084s-12.596-28.084-28.082-28.084zm0 46.168c-9.97 0-18.084-8.114-18.084-18.084s8.114-18.084 18.084-18.084 18.084 8.114 18.084 18.084-8.114 18.084-18.084 18.084z" fill-rule="nonzero"/><path d="m13.5 216.974c0 2.762 2.238 5 5 5h17.498c2.762 0 5-2.238 5-5s-2.238-5-5-5h-12.498v-69.774h12.458c2.76 0 5-2.24 5-5 0-2.74-2.24-4.98-5-4.98-3.592 0-26.946 0-30.54 0-2.76 0-5 2.24-5 4.98 0 2.76 2.24 5 5 5h8.08v74.774z"/><path d="m49.332 216.974c0 2.762 2.238 5 5 5h24.168c2.762 0 5-2.238 5-5s-2.238-5-5-5h-24.168c-2.762 0-5 2.238-5 5z"/><path d="m13.5 239.21c0 2.762 2.238 5 5 5h60c2.762 0 5-2.238 5-5s-2.238-5-5-5h-60c-2.762 0-5 2.24-5 5z"/><path d="m78.5 256.448h-60c-2.762 0-5 2.238-5 5s2.238 5 5 5h60c2.762 0 5-2.238 5-5s-2.238-5-5-5z"/><path d="m362.222 274.678-6.268-2.018-3.724-5.22c-3.576-5.022-11.058-5.022-14.634 0l-3.724 5.22-6.264 2.018c-5.928 1.906-8.16 9.12-4.372 14.044l3.81 4.944-.12 6.52c-.108 6.302 6.134 10.752 12.054 8.612l5.932-2.152 5.932 2.152c5.91 2.144 12.16-2.308 12.052-8.616l-.12-6.516 3.812-4.946c3.792-4.924 1.558-12.138-4.366-14.042zm-8.434 14.272c-.694.9-1.058 2.008-1.04 3.144l.126 6.8-6.254-2.27c-1.102-.398-2.308-.398-3.41 0l-6.256 2.27.126-6.8c.02-1.136-.346-2.244-1.04-3.144l-4.004-5.192 6.478-2.086c1.024-.33 1.914-.98 2.538-1.858l3.862-5.414 3.864 5.414c.624.876 1.514 1.528 2.54 1.858l6.476 2.084z" fill-rule="nonzero"/><path d="m349.394 323.402h-8.96c-2.762 0-5 2.238-5 5s2.238 5 5 5h8.96c2.762 0 5-2.238 5-5s-2.238-5-5-5z"/><path d="m311.44 299.26c2.74 0 4.98-2.24 4.98-5s-2.24-5-4.98-5c-2.76 0-5.02 2.24-5.02 5s2.26 5 5.02 5z"/><path d="m367.458 240.6h-45.1c-8.78.02-15.92 7.16-15.94 15.94v17.72c0 2.76 2.26 5 5.02 5 2.74 0 4.98-2.24 4.98-5v-17.72c.02-3.26 2.68-5.92 5.94-5.94h45.1c3.26.02 5.92 2.68 5.942 5.94v79.08c-.022 3.26-2.682 5.92-5.942 5.92h-45.1c-3.26 0-5.92-2.66-5.94-5.92v-21.36c0-2.76-2.24-5-4.98-5-2.76 0-5 2.22-5 4.958 0 .022-.02.022-.02.042v21.36c.02 8.782 7.16 15.92 15.94 15.92h45.1c8.782 0 15.942-7.138 15.942-15.92v-79.08c0-8.78-7.16-15.92-15.942-15.94z"/><path d="m373.58 181.948c2.762 0 5-2.238 5-5s-2.238-5-5-5h-24.168c-2.762 0-5 2.238-5 5s2.238 5 5 5z"/><path d="m308.58 199.184c0 2.762 2.238 5 5 5h60c2.762 0 5-2.238 5-5s-2.238-5-5-5h-60c-2.762 0-5 2.238-5 5z"/><path d="m313.58 226.422h60c2.762 0 5-2.238 5-5s-2.238-5-5-5h-60c-2.762 0-5 2.238-5 5s2.238 5 5 5z"/><path d="m177.25 171.948h-24.168c-2.762 0-5 2.238-5 5s2.238 5 5 5h24.168c2.762 0 5-2.238 5-5s-2.238-5-5-5z"/><path d="m177.25 194.184h-60c-2.762 0-5 2.238-5 5s2.238 5 5 5h60c2.762 0 5-2.238 5-5s-2.238-5-5-5z"/><path d="m177.25 216.422h-60c-2.762 0-5 2.238-5 5s2.238 5 5 5h60c2.762 0 5-2.238 5-5s-2.238-5-5-5z"/><path d="m173.584 260.096-10.754-3.46-6.404-8.978c-4.482-6.29-13.864-6.298-18.352 0l-6.404 8.978-10.754 3.46c-7.42 2.388-10.232 11.434-5.474 17.608l6.6 8.566-.204 11.252c-.136 7.882 7.672 13.49 15.112 10.798l10.3-3.734 10.302 3.734c7.44 2.69 15.25-2.922 15.11-10.8l-.204-11.248 6.602-8.566c4.758-6.18 1.946-15.222-5.476-17.61zm-2.446 11.504-7.672 9.956c-.692.9-1.058 2.008-1.04 3.142l.234 13.004c.018.884-.854 1.528-1.704 1.216l-12.006-4.352c-1.098-.398-2.308-.398-3.406 0l-12.004 4.352c-.832.306-1.722-.312-1.706-1.218l.234-13.002c.02-1.134-.346-2.242-1.04-3.14l-7.67-9.958c-.544-.702-.222-1.716.616-1.984l12.332-3.968c1.026-.33 1.914-.98 2.54-1.858l7.366-10.328c.51-.712 1.56-.712 2.07 0l7.366 10.328c.626.876 1.514 1.528 2.54 1.858l12.332 3.968c.844.272 1.16 1.284.618 1.984z" fill-rule="nonzero"/><path d="m473.502 211.974h-24.168c-2.762 0-5 2.238-5 5s2.238 5 5 5h24.168c2.762 0 5-2.238 5-5s-2.238-5-5-5z"/><path d="m473.502 234.21h-60c-2.762 0-5 2.238-5 5s2.238 5 5 5h60c2.762 0 5-2.238 5-5s-2.238-5-5-5z"/><path d="m473.502 256.448h-60c-2.762 0-5 2.238-5 5s2.238 5 5 5h60c2.762 0 5-2.238 5-5s-2.238-5-5-5z"/><path d="m463.216 309.164c2.26-3.496 3.472-7.568 3.472-11.81 0-11.806-9.516-21.538-21.324-21.824-.208-.018-.416-.074-.578-.03-11.058.03-20.586 8.656-21.688 19.63-.506 4.976.696 9.896 3.362 14.036-8.052 3.818-13.376 11.986-13.376 21.156v14.012c0 2.762 2.238 5 5 5s5-2.238 5-5v-14.012c0-6.126 4.148-11.472 10.144-13.014 5.19-1.396 6.86-7.944 3.174-11.636-2.528-2.57-3.718-5.954-3.354-9.534.59-5.876 5.638-10.508 11.588-10.636.138.012.274.02.388.022 6.432.074 11.664 5.38 11.664 11.83 0 3.1-1.198 6.034-3.35 8.238-3.734 3.77-2.172 10.312 3.154 11.73 5.942 1.53 10.092 6.876 10.092 13v14.012c0 2.762 2.238 5 5 5s5-2.238 5-5v-14.012c.002-9.176-5.33-17.348-13.368-21.158z"/><path d="m276.002 211.974h-24.17c-2.762 0-5 2.238-5 5s2.238 5 5 5h24.17c2.762 0 5-2.238 5-5s-2.238-5-5-5z"/><path d="m276.002 234.21h-60c-2.762 0-5 2.238-5 5s2.238 5 5 5h60c2.762 0 5-2.238 5-5s-2.238-5-5-5z"/><path d="m276.002 256.448h-60c-2.762 0-5 2.238-5 5s2.238 5 5 5h60c2.762 0 5-2.238 5-5s-2.238-5-5-5z"/><path d="m272.002 287.346h-43c-2.762 0-5 2.238-5 5v27.32 32.834c0 2.762 2.238 5 5 5s5-2.238 5-5v-27.834h38c1.938 0 3.702-1.12 4.526-2.876.824-1.754.56-3.826-.678-5.318l-8.686-10.466 8.686-10.466c2.694-3.246.386-8.194-3.848-8.194zm-15.182 21.854 4.536 5.466h-27.354v-17.32h27.354l-4.536 5.466c-1.536 1.852-1.536 4.536 0 6.388z" fill-rule="nonzero"/><path d="m500.42 69.4-5.622-14.22c-1-2.52-3.958-3.82-6.478-2.82-2.522.962-3.842 3.876-2.84 6.46l.02.02 4.878 12.4-24.04 60.978c-30.558 0-51.474 0-82.138 0l23.328-59.142c.464-1.178.466-2.488.002-3.668l-23.33-59.208h82.12l4.5 11.42c1.064 2.716 4.074 3.816 6.478 2.82 2.56-1 3.84-3.92 2.82-6.48l-5.74-14.58c-.78-1.92-2.6-3.16-4.66-3.16-21.044 0-442.842 0-464.318 0-2.762 0-5 2.24-5 4.98 0 2.76 2.238 5 5 5h89.452l24.072 61.042-24.052 60.976h-18.916c-2.76 0-5 2.24-5 4.98 0 2.76 2.24 5 5 5h36.292v34.748c0 2.762 2.238 5 5 5h17.498c2.762 0 5-2.238 5-5s-2.238-5-5-5h-12.498v-29.746h88.752v74.776c0 2.762 2.238 5 5 5h17.496c2.762 0 5-2.238 5-5s-2.238-5-5-5h-12.496v-69.776h87.578v34.748c0 2.762 2.238 5 5 5h17.498c2.762 0 5-2.238 5-5s-2.238-5-5-5h-12.498v-29.748h89.922v74.776c0 2.762 2.238 5 5 5h17.498c2.762 0 5-2.238 5-5s-2.238-5-5-5h-12.498v-69.776h51.238c2.04 0 3.898-1.26 4.66-3.16l26.02-65.958c.46-1.182.46-2.502.002-3.682zm-102.916 1.842-24.05 60.976c-18.04 0-49.91 0-82.112 0l23.328-59.142c.466-1.178.466-2.49.002-3.668l-23.348-59.208h82.126zm-199.02 60.976 23.328-59.142c.466-1.178.466-2.49.002-3.668l-23.35-59.208h82.108l24.072 61.042-24.05 60.976c-16.88 0-66.24 0-82.11 0zm-69.532-59.142c.466-1.178.466-2.49 0-3.668l-23.352-59.208h82.112l24.072 61.042-24.05 60.976c-20.01 0-62.032 0-82.114 0z" fill-rule="nonzero"/><path d="m478.16 40.24c1.022 2.584 3.876 3.806 6.478 2.82 2.594-1.046 3.818-3.926 2.82-6.5-1.028-2.602-3.942-3.822-6.5-2.8-2.476.96-3.856 3.854-2.798 6.48z"/><path d="m60.958 137.2c0-2.74-2.24-4.98-5-4.98s-5 2.24-5 4.98c0 2.76 2.24 5 5 5s5-2.242 5-5z"/></g></g></svg>