<?xml version="1.0" encoding="UTF-8"?>
<svg width="501px" height="358px" viewBox="0 0 501 358" version="1.1" xmlns="http://www.w3.org/2000/svg" xmlns:xlink="http://www.w3.org/1999/xlink">
    <!-- Generator: Sketch 52.6 (67491) - http://www.bohemiancoding.com/sketch -->
    <title>project</title>
    <desc>Created with Sketch.</desc>
    <g id="Page-1" stroke="none" stroke-width="1" fill="none" fill-rule="evenodd">
        <g id="project">
            <polygon id="Path" fill="#AFAFAF" points="124.3 71.242 98.28 137.21 5.42 137.21 31.44 71.242 5.4 5.21 98.26 5.21"></polygon>
            <path d="M105.34,124.34 L57.34,124.34 C54.578,124.34 52.34,122.102 52.34,119.34 C52.34,116.578 54.578,114.34 57.34,114.34 L105.34,114.34 C108.102,114.34 110.34,116.578 110.34,119.34 C110.34,122.102 108.102,124.34 105.34,124.34 Z M37.34,124.34 L28.8,124.34 C26.038,124.34 23.8,122.102 23.8,119.34 C23.8,116.578 26.038,114.34 28.8,114.34 L37.34,114.34 C40.102,114.34 42.34,116.578 42.34,119.34 C42.34,122.102 40.102,124.34 37.34,124.34 Z" id="Shape" fill="#FFFFFF" fill-rule="nonzero"></path>
            <polygon id="Path" fill="#72C1E8" points="217.16 71.242 191.14 137.21 98.28 137.21 124.3 71.242 98.26 5.21 191.12 5.21"></polygon>
            <path d="M198.2,124.34 L105.34,124.34 C102.578,124.34 100.34,122.102 100.34,119.34 C100.34,116.578 102.578,114.34 105.34,114.34 L198.2,114.34 C200.962,114.34 203.2,116.578 203.2,119.34 C203.2,122.102 200.96,124.34 198.2,124.34 Z" id="Path" fill="#C5E5FF"></path>
            <polygon id="Path" fill="#13BF6D" points="310.02 71.242 284 137.21 191.14 137.21 217.16 71.242 191.12 5.21 283.98 5.21"></polygon>
            <path d="M291.06,124.34 L243.06,124.34 C240.298,124.34 238.06,122.102 238.06,119.34 C238.06,116.578 240.298,114.34 243.06,114.34 L291.06,114.34 C293.822,114.34 296.06,116.578 296.06,119.34 C296.06,122.102 293.822,124.34 291.06,124.34 Z M223.06,124.34 L198.2,124.34 C195.438,124.34 193.2,122.102 193.2,119.34 C193.2,116.578 195.438,114.34 198.2,114.34 L223.062,114.34 C225.824,114.34 228.062,116.578 228.062,119.34 C228.062,122.102 225.822,124.34 223.06,124.34 Z" id="Shape" fill="#76FFBA" fill-rule="nonzero"></path>
            <polygon id="Path" fill="#F0C020" points="402.88 71.242 376.86 137.21 284 137.21 310.02 71.242 283.98 5.21 376.86 5.21"></polygon>
            <path d="M383.92,124.34 L291.06,124.34 C288.298,124.34 286.06,122.102 286.06,119.34 C286.06,116.578 288.298,114.34 291.06,114.34 L383.92,114.34 C386.682,114.34 388.92,116.578 388.92,119.34 C388.92,122.102 386.682,124.34 383.92,124.34 Z" id="Path" fill="#F9E5AF"></path>
            <polygon id="Path" fill="#FC5D3D" points="495.76 71.242 469.74 137.21 376.86 137.21 402.88 71.242 376.86 5.21 469.72 5.21"></polygon>
            <path d="M476.8,124.34 L383.92,124.34 C381.158,124.34 378.92,122.102 378.92,119.34 C378.92,116.578 381.158,114.34 383.92,114.34 L476.8,114.34 C479.562,114.34 481.8,116.578 481.8,119.34 C481.8,122.102 479.562,124.34 476.8,124.34 Z" id="Path" fill="#FFCBC2"></path>
            <circle id="Oval" fill="#72C1E8" cx="55.52" cy="309.402" r="23.084"></circle>
            <path d="M367.466,245.606 L322.362,245.606 C316.326,245.606 311.432,250.5 311.432,256.536 L311.432,335.606 C311.432,341.642 316.326,346.536 322.362,346.536 L367.466,346.536 C373.504,346.536 378.396,341.642 378.396,335.606 L378.396,256.536 C378.396,250.502 373.502,245.606 367.466,245.606 Z" id="Path" fill="#72C1E8"></path>
            <path d="M348.162,270.342 L352.846,276.912 L360.69,279.436 C363.32,280.282 364.314,283.48 362.628,285.668 L357.748,292 L357.896,300.272 C357.946,303.068 355.178,305.048 352.548,304.094 L344.912,301.326 L337.276,304.094 C334.646,305.048 331.878,303.068 331.928,300.272 L332.076,292 L327.196,285.668 C325.51,283.48 326.504,280.282 329.134,279.436 L336.978,276.912 L341.662,270.342 C343.256,268.112 346.57,268.112 348.162,270.342 Z" id="Path" fill="#F0C020"></path>
            <path d="M152.356,250.558 L159.72,260.886 L172.052,264.854 C176.186,266.184 177.748,271.212 175.098,274.652 L167.428,284.606 L167.662,297.61 C167.742,302.006 163.388,305.118 159.254,303.618 L147.25,299.266 L135.246,303.618 C131.112,305.116 126.76,302.006 126.838,297.61 L127.072,284.606 L119.402,274.652 C116.752,271.212 118.314,266.184 122.448,264.854 L134.78,260.886 L142.144,250.558 C144.646,247.052 149.856,247.052 152.356,250.558 Z" id="Path" fill="#F0C020"></path>
            <path d="M471.586,330.322 L471.586,344.334 L418.084,344.334 L418.084,330.322 C418.084,321.73 423.972,314.526 431.93,312.48 C433.376,312.092 433.882,310.224 432.836,309.178 C429.462,305.746 427.536,300.928 428.076,295.638 C428.898,287.422 435.916,280.524 444.802,280.5 L444.86,280.5 C444.942,280.5 445.002,280.524 445.084,280.524 C454.286,280.63 461.692,288.116 461.692,297.354 C461.692,301.938 459.858,306.074 456.896,309.108 C455.814,310.202 456.25,312.082 457.742,312.482 C465.686,314.526 471.586,321.73 471.586,330.322 Z" id="Path" fill="#FC5D3D"></path>
            <polygon id="Path" fill="#FC5D3D" points="272 292.346 229 292.346 229 319.666 272 319.666 260.668 306.006"></polygon>
            <g id="Group" fill="#000000">
                <path d="M77.042,86.544 L77.042,55.876 C77.042,53.114 74.804,50.876 72.042,50.876 C69.28,50.876 67.042,53.114 67.042,55.876 L67.042,86.544 C67.042,89.306 69.28,91.544 72.042,91.544 C74.804,91.544 77.042,89.306 77.042,86.544 Z" id="Path"></path>
                <path d="M447.214,82.134 L431.826,82.134 C429.064,82.134 426.826,84.372 426.826,87.134 C426.826,89.896 429.064,92.134 431.826,92.134 L447.214,92.134 C453.576,92.134 458.952,87.58 460,81.302 C461.316,73.398 455.218,66.21 447.214,66.21 L437.728,66.21 L438.714,60.286 L453.958,60.286 C456.72,60.286 458.958,58.048 458.958,55.286 C458.958,52.524 456.72,50.286 453.958,50.286 L434.478,50.286 C432.032,50.286 429.946,52.054 429.546,54.464 L426.894,70.388 C426.386,73.434 428.738,76.21 431.826,76.21 L447.214,76.21 C449.046,76.21 450.436,77.85 450.136,79.658 C449.896,81.094 448.668,82.134 447.214,82.134 Z" id="Path"></path>
                <path d="M168.81,66.474 L162.936,66.474 C155.014,66.474 148.604,72.886 148.608,80.812 L148.612,86.686 C148.614,89.446 150.852,91.682 153.612,91.682 L175.484,91.682 C178.246,91.682 180.484,89.444 180.484,86.682 C180.484,83.92 178.246,81.682 175.484,81.682 L158.608,81.682 L158.608,80.806 C158.608,78.402 160.55,76.474 162.936,76.474 L168.81,76.474 C175.58,76.474 181.398,70.942 181.188,63.906 C180.96,56.4 175.302,50.74 168.024,50.74 L153.612,50.74 C150.85,50.74 148.612,52.978 148.612,55.74 C148.612,58.502 150.85,60.74 153.612,60.74 L168.024,60.74 C169.162,60.74 171.11,61.47 171.192,64.208 C171.232,65.462 170.086,66.474 168.81,66.474 Z" id="Path"></path>
                <path d="M258.748,50.288 L248.814,50.288 C246.052,50.288 243.814,52.526 243.814,55.288 C243.814,58.05 246.052,60.288 248.814,60.288 L258.748,60.288 C260.38,60.288 261.708,61.616 261.708,63.248 C261.708,64.88 260.38,66.21 258.748,66.21 L248.814,66.21 C246.052,66.21 243.814,68.448 243.814,71.21 C243.814,73.972 246.052,76.21 248.814,76.21 L258.748,76.21 C260.38,76.21 261.708,77.538 261.708,79.17 C261.708,80.802 260.38,82.132 258.748,82.132 L248.814,82.132 C246.052,82.132 243.814,84.37 243.814,87.132 C243.814,89.894 246.052,92.132 248.814,92.132 L258.748,92.132 C269.504,92.132 275.594,79.7 268.954,71.208 C275.58,62.732 269.52,50.288 258.748,50.288 Z" id="Path"></path>
                <path d="M336.628,80.03 L352.274,80.03 L352.274,87.136 C352.274,89.898 354.512,92.136 357.274,92.136 C360.036,92.136 362.274,89.898 362.274,87.136 L362.274,80.03 L364.614,80.03 C367.376,80.03 369.614,77.792 369.614,75.03 C369.614,72.268 367.376,70.03 364.614,70.03 L362.274,70.03 L362.274,55.288 C362.274,52.526 360.036,50.288 357.274,50.288 C354.512,50.288 352.274,52.526 352.274,55.288 L352.274,70.03 L343.026,70.03 L346.346,56.696 C347.014,54.016 345.384,51.304 342.704,50.636 C340.022,49.96 337.31,51.598 336.644,54.278 L331.776,73.82 C330.99,76.972 333.382,80.03 336.628,80.03 Z" id="Path"></path>
                <path d="M55.52,281.318 C40.034,281.318 27.436,293.916 27.436,309.402 C27.436,315.346 29.304,320.854 32.466,325.398 L14.862,343.002 C12.908,344.954 12.908,348.12 14.862,350.072 C16.816,352.026 19.98,352.026 21.932,350.072 L39.538,332.466 C44.078,335.622 49.582,337.486 55.518,337.486 C71.004,337.486 83.602,324.888 83.602,309.402 C83.602,293.916 71.006,281.318 55.52,281.318 Z M55.52,327.486 C45.55,327.486 37.436,319.372 37.436,309.402 C37.436,299.432 45.55,291.318 55.52,291.318 C65.49,291.318 73.604,299.432 73.604,309.402 C73.604,319.372 65.49,327.486 55.52,327.486 Z" id="Shape" fill-rule="nonzero"></path>
                <path d="M13.5,216.974 C13.5,219.736 15.738,221.974 18.5,221.974 L35.998,221.974 C38.76,221.974 40.998,219.736 40.998,216.974 C40.998,214.212 38.76,211.974 35.998,211.974 L23.5,211.974 L23.5,142.2 L35.958,142.2 C38.718,142.2 40.958,139.96 40.958,137.2 C40.958,134.46 38.718,132.22 35.958,132.22 C32.366,132.22 9.012,132.22 5.418,132.22 C2.658,132.22 0.418,134.46 0.418,137.2 C0.418,139.96 2.658,142.2 5.418,142.2 L13.498,142.2 L13.498,216.974 L13.5,216.974 Z" id="Path"></path>
                <path d="M49.332,216.974 C49.332,219.736 51.57,221.974 54.332,221.974 L78.5,221.974 C81.262,221.974 83.5,219.736 83.5,216.974 C83.5,214.212 81.262,211.974 78.5,211.974 L54.332,211.974 C51.57,211.974 49.332,214.212 49.332,216.974 Z" id="Path"></path>
                <path d="M13.5,239.21 C13.5,241.972 15.738,244.21 18.5,244.21 L78.5,244.21 C81.262,244.21 83.5,241.972 83.5,239.21 C83.5,236.448 81.262,234.21 78.5,234.21 L18.5,234.21 C15.738,234.21 13.5,236.45 13.5,239.21 Z" id="Path"></path>
                <path d="M78.5,256.448 L18.5,256.448 C15.738,256.448 13.5,258.686 13.5,261.448 C13.5,264.21 15.738,266.448 18.5,266.448 L78.5,266.448 C81.262,266.448 83.5,264.21 83.5,261.448 C83.5,258.686 81.262,256.448 78.5,256.448 Z" id="Path"></path>
                <path d="M362.222,274.678 L355.954,272.66 L352.23,267.44 C348.654,262.418 341.172,262.418 337.596,267.44 L333.872,272.66 L327.608,274.678 C321.68,276.584 319.448,283.798 323.236,288.722 L327.046,293.666 L326.926,300.186 C326.818,306.488 333.06,310.938 338.98,308.798 L344.912,306.646 L350.844,308.798 C356.754,310.942 363.004,306.49 362.896,300.182 L362.776,293.666 L366.588,288.72 C370.38,283.796 368.146,276.582 362.222,274.678 Z M353.788,288.95 C353.094,289.85 352.73,290.958 352.748,292.094 L352.874,298.894 L346.62,296.624 C345.518,296.226 344.312,296.226 343.21,296.624 L336.954,298.894 L337.08,292.094 C337.1,290.958 336.734,289.85 336.04,288.95 L332.036,283.758 L338.514,281.672 C339.538,281.342 340.428,280.692 341.052,279.814 L344.914,274.4 L348.778,279.814 C349.402,280.69 350.292,281.342 351.318,281.672 L357.794,283.756 L353.788,288.95 Z" id="Shape" fill-rule="nonzero"></path>
                <path d="M349.394,323.402 L340.434,323.402 C337.672,323.402 335.434,325.64 335.434,328.402 C335.434,331.164 337.672,333.402 340.434,333.402 L349.394,333.402 C352.156,333.402 354.394,331.164 354.394,328.402 C354.394,325.64 352.156,323.402 349.394,323.402 Z" id="Path"></path>
                <path d="M311.44,299.26 C314.18,299.26 316.42,297.02 316.42,294.26 C316.42,291.5 314.18,289.26 311.44,289.26 C308.68,289.26 306.42,291.5 306.42,294.26 C306.42,297.02 308.68,299.26 311.44,299.26 Z" id="Path"></path>
                <path d="M367.458,240.6 L322.358,240.6 C313.578,240.62 306.438,247.76 306.418,256.54 L306.418,274.26 C306.418,277.02 308.678,279.26 311.438,279.26 C314.178,279.26 316.418,277.02 316.418,274.26 L316.418,256.54 C316.438,253.28 319.098,250.62 322.358,250.6 L367.458,250.6 C370.718,250.62 373.378,253.28 373.4,256.54 L373.4,335.62 C373.378,338.88 370.718,341.54 367.458,341.54 L322.358,341.54 C319.098,341.54 316.438,338.88 316.418,335.62 L316.418,314.26 C316.418,311.5 314.178,309.26 311.438,309.26 C308.678,309.26 306.438,311.48 306.438,314.218 C306.438,314.24 306.418,314.24 306.418,314.26 L306.418,335.62 C306.438,344.402 313.578,351.54 322.358,351.54 L367.458,351.54 C376.24,351.54 383.4,344.402 383.4,335.62 L383.4,256.54 C383.4,247.76 376.24,240.62 367.458,240.6 Z" id="Path"></path>
                <path d="M373.58,181.948 C376.342,181.948 378.58,179.71 378.58,176.948 C378.58,174.186 376.342,171.948 373.58,171.948 L349.412,171.948 C346.65,171.948 344.412,174.186 344.412,176.948 C344.412,179.71 346.65,181.948 349.412,181.948 L373.58,181.948 Z" id="Path"></path>
                <path d="M308.58,199.184 C308.58,201.946 310.818,204.184 313.58,204.184 L373.58,204.184 C376.342,204.184 378.58,201.946 378.58,199.184 C378.58,196.422 376.342,194.184 373.58,194.184 L313.58,194.184 C310.818,194.184 308.58,196.422 308.58,199.184 Z" id="Path"></path>
                <path d="M313.58,226.422 L373.58,226.422 C376.342,226.422 378.58,224.184 378.58,221.422 C378.58,218.66 376.342,216.422 373.58,216.422 L313.58,216.422 C310.818,216.422 308.58,218.66 308.58,221.422 C308.58,224.184 310.818,226.422 313.58,226.422 Z" id="Path"></path>
                <path d="M177.25,171.948 L153.082,171.948 C150.32,171.948 148.082,174.186 148.082,176.948 C148.082,179.71 150.32,181.948 153.082,181.948 L177.25,181.948 C180.012,181.948 182.25,179.71 182.25,176.948 C182.25,174.186 180.012,171.948 177.25,171.948 Z" id="Path"></path>
                <path d="M177.25,194.184 L117.25,194.184 C114.488,194.184 112.25,196.422 112.25,199.184 C112.25,201.946 114.488,204.184 117.25,204.184 L177.25,204.184 C180.012,204.184 182.25,201.946 182.25,199.184 C182.25,196.422 180.012,194.184 177.25,194.184 Z" id="Path"></path>
                <path d="M177.25,216.422 L117.25,216.422 C114.488,216.422 112.25,218.66 112.25,221.422 C112.25,224.184 114.488,226.422 117.25,226.422 L177.25,226.422 C180.012,226.422 182.25,224.184 182.25,221.422 C182.25,218.66 180.012,216.422 177.25,216.422 Z" id="Path"></path>
                <path d="M173.584,260.096 L162.83,256.636 L156.426,247.658 C151.944,241.368 142.562,241.36 138.074,247.658 L131.67,256.636 L120.916,260.096 C113.496,262.484 110.684,271.53 115.442,277.704 L122.042,286.27 L121.838,297.522 C121.702,305.404 129.51,311.012 136.95,308.32 L147.25,304.586 L157.552,308.32 C164.992,311.01 172.802,305.398 172.662,297.52 L172.458,286.272 L179.06,277.706 C183.818,271.526 181.006,262.484 173.584,260.096 Z M171.138,271.6 L163.466,281.556 C162.774,282.456 162.408,283.564 162.426,284.698 L162.66,297.702 C162.678,298.586 161.806,299.23 160.956,298.918 L148.95,294.566 C147.852,294.168 146.642,294.168 145.544,294.566 L133.54,298.918 C132.708,299.224 131.818,298.606 131.834,297.7 L132.068,284.698 C132.088,283.564 131.722,282.456 131.028,281.558 L123.358,271.6 C122.814,270.898 123.136,269.884 123.974,269.616 L136.306,265.648 C137.332,265.318 138.22,264.668 138.846,263.79 L146.212,253.462 C146.722,252.75 147.772,252.75 148.282,253.462 L155.648,263.79 C156.274,264.666 157.162,265.318 158.188,265.648 L170.52,269.616 C171.364,269.888 171.68,270.9 171.138,271.6 Z" id="Shape" fill-rule="nonzero"></path>
                <path d="M473.502,211.974 L449.334,211.974 C446.572,211.974 444.334,214.212 444.334,216.974 C444.334,219.736 446.572,221.974 449.334,221.974 L473.502,221.974 C476.264,221.974 478.502,219.736 478.502,216.974 C478.502,214.212 476.264,211.974 473.502,211.974 Z" id="Path"></path>
                <path d="M473.502,234.21 L413.502,234.21 C410.74,234.21 408.502,236.448 408.502,239.21 C408.502,241.972 410.74,244.21 413.502,244.21 L473.502,244.21 C476.264,244.21 478.502,241.972 478.502,239.21 C478.502,236.448 476.264,234.21 473.502,234.21 Z" id="Path"></path>
                <path d="M473.502,256.448 L413.502,256.448 C410.74,256.448 408.502,258.686 408.502,261.448 C408.502,264.21 410.74,266.448 413.502,266.448 L473.502,266.448 C476.264,266.448 478.502,264.21 478.502,261.448 C478.502,258.686 476.264,256.448 473.502,256.448 Z" id="Path"></path>
                <path d="M463.216,309.164 C465.476,305.668 466.688,301.596 466.688,297.354 C466.688,285.548 457.172,275.816 445.364,275.53 C445.156,275.512 444.948,275.456 444.786,275.5 C433.728,275.53 424.2,284.156 423.098,295.13 C422.592,300.106 423.794,305.026 426.46,309.166 C418.408,312.984 413.084,321.152 413.084,330.322 L413.084,344.334 C413.084,347.096 415.322,349.334 418.084,349.334 C420.846,349.334 423.084,347.096 423.084,344.334 L423.084,330.322 C423.084,324.196 427.232,318.85 433.228,317.308 C438.418,315.912 440.088,309.364 436.402,305.672 C433.874,303.102 432.684,299.718 433.048,296.138 C433.638,290.262 438.686,285.63 444.636,285.502 C444.774,285.514 444.91,285.522 445.024,285.524 C451.456,285.598 456.688,290.904 456.688,297.354 C456.688,300.454 455.49,303.388 453.338,305.592 C449.604,309.362 451.166,315.904 456.492,317.322 C462.434,318.852 466.584,324.198 466.584,330.322 L466.584,344.334 C466.584,347.096 468.822,349.334 471.584,349.334 C474.346,349.334 476.584,347.096 476.584,344.334 L476.584,330.322 C476.586,321.146 471.254,312.974 463.216,309.164 Z" id="Path"></path>
                <path d="M276.002,211.974 L251.832,211.974 C249.07,211.974 246.832,214.212 246.832,216.974 C246.832,219.736 249.07,221.974 251.832,221.974 L276.002,221.974 C278.764,221.974 281.002,219.736 281.002,216.974 C281.002,214.212 278.764,211.974 276.002,211.974 Z" id="Path"></path>
                <path d="M276.002,234.21 L216.002,234.21 C213.24,234.21 211.002,236.448 211.002,239.21 C211.002,241.972 213.24,244.21 216.002,244.21 L276.002,244.21 C278.764,244.21 281.002,241.972 281.002,239.21 C281.002,236.448 278.764,234.21 276.002,234.21 Z" id="Path"></path>
                <path d="M276.002,256.448 L216.002,256.448 C213.24,256.448 211.002,258.686 211.002,261.448 C211.002,264.21 213.24,266.448 216.002,266.448 L276.002,266.448 C278.764,266.448 281.002,264.21 281.002,261.448 C281.002,258.686 278.764,256.448 276.002,256.448 Z" id="Path"></path>
                <path d="M272.002,287.346 L229.002,287.346 C226.24,287.346 224.002,289.584 224.002,292.346 L224.002,319.666 L224.002,352.5 C224.002,355.262 226.24,357.5 229.002,357.5 C231.764,357.5 234.002,355.262 234.002,352.5 L234.002,324.666 L272.002,324.666 C273.94,324.666 275.704,323.546 276.528,321.79 C277.352,320.036 277.088,317.964 275.85,316.472 L267.164,306.006 L275.85,295.54 C278.544,292.294 276.236,287.346 272.002,287.346 Z M256.82,309.2 L261.356,314.666 L234.002,314.666 L234.002,297.346 L261.356,297.346 L256.82,302.812 C255.284,304.664 255.284,307.348 256.82,309.2 Z" id="Shape" fill-rule="nonzero"></path>
                <path d="M500.42,69.4 L494.798,55.18 C493.798,52.66 490.84,51.36 488.32,52.36 C485.798,53.322 484.478,56.236 485.48,58.82 L485.5,58.84 L490.378,71.24 L466.338,132.218 C435.78,132.218 414.864,132.218 384.2,132.218 L407.528,73.076 C407.992,71.898 407.994,70.588 407.53,69.408 L384.2,10.2 L466.32,10.2 L470.82,21.62 C471.884,24.336 474.894,25.436 477.298,24.44 C479.858,23.44 481.138,20.52 480.118,17.96 L474.378,3.38 C473.598,1.46 471.778,0.22 469.718,0.22 C448.674,0.22 26.876,0.22 5.4,0.22 C2.638,0.22 0.4,2.46 0.4,5.2 C0.4,7.96 2.638,10.2 5.4,10.2 L94.852,10.2 L118.924,71.242 L94.872,132.218 L75.956,132.218 C73.196,132.218 70.956,134.458 70.956,137.198 C70.956,139.958 73.196,142.198 75.956,142.198 L112.248,142.198 L112.248,176.946 C112.248,179.708 114.486,181.946 117.248,181.946 L134.746,181.946 C137.508,181.946 139.746,179.708 139.746,176.946 C139.746,174.184 137.508,171.946 134.746,171.946 L122.248,171.946 L122.248,142.2 L211,142.2 L211,216.976 C211,219.738 213.238,221.976 216,221.976 L233.496,221.976 C236.258,221.976 238.496,219.738 238.496,216.976 C238.496,214.214 236.258,211.976 233.496,211.976 L221,211.976 L221,142.2 L308.578,142.2 L308.578,176.948 C308.578,179.71 310.816,181.948 313.578,181.948 L331.076,181.948 C333.838,181.948 336.076,179.71 336.076,176.948 C336.076,174.186 333.838,171.948 331.076,171.948 L318.578,171.948 L318.578,142.2 L408.5,142.2 L408.5,216.976 C408.5,219.738 410.738,221.976 413.5,221.976 L430.998,221.976 C433.76,221.976 435.998,219.738 435.998,216.976 C435.998,214.214 433.76,211.976 430.998,211.976 L418.5,211.976 L418.5,142.2 L469.738,142.2 C471.778,142.2 473.636,140.94 474.398,139.04 L500.418,73.082 C500.878,71.9 500.878,70.58 500.42,69.4 Z M397.504,71.242 L373.454,132.218 C355.414,132.218 323.544,132.218 291.342,132.218 L314.67,73.076 C315.136,71.898 315.136,70.586 314.672,69.408 L291.324,10.2 L373.45,10.2 L397.504,71.242 Z M198.484,132.218 L221.812,73.076 C222.278,71.898 222.278,70.586 221.814,69.408 L198.464,10.2 L280.572,10.2 L304.644,71.242 L280.594,132.218 C263.714,132.218 214.354,132.218 198.484,132.218 Z M128.952,73.076 C129.418,71.898 129.418,70.586 128.952,69.408 L105.6,10.2 L187.712,10.2 L211.784,71.242 L187.734,132.218 C167.724,132.218 125.702,132.218 105.62,132.218 L128.952,73.076 Z" id="Shape" fill-rule="nonzero"></path>
                <path d="M478.16,40.24 C479.182,42.824 482.036,44.046 484.638,43.06 C487.232,42.014 488.456,39.134 487.458,36.56 C486.43,33.958 483.516,32.738 480.958,33.76 C478.482,34.72 477.102,37.614 478.16,40.24 Z" id="Path"></path>
                <path d="M60.958,137.2 C60.958,134.46 58.718,132.22 55.958,132.22 C53.198,132.22 50.958,134.46 50.958,137.2 C50.958,139.96 53.198,142.2 55.958,142.2 C58.718,142.2 60.958,139.958 60.958,137.2 Z" id="Path"></path>
            </g>
        </g>
    </g>
</svg>